<svg width="160" height="160" viewBox="0 0 160 160" fill="none" xmlns="http://www.w3.org/2000/svg">
  <defs>
    <!-- Main orb gradient with vibrant colors -->
    <radialGradient id="orbGlow" cx="50%" cy="40%" r="70%">
      <stop offset="0%" stop-color="#FFFFFF"/>
      <stop offset="20%" stop-color="#E0F2FE"/>
      <stop offset="45%" stop-color="#7DD3FC"/>
      <stop offset="70%" stop-color="#3B82F6"/>
      <stop offset="100%" stop-color="#1E3A8A"/>
    </radialGradient>
    
    <!-- Secondary glow for depth -->
    <radialGradient id="innerGlow" cx="45%" cy="35%" r="40%">
      <stop offset="0%" stop-color="#FFFFFF" stop-opacity="0.9"/>
      <stop offset="50%" stop-color="#60A5FA" stop-opacity="0.6"/>
      <stop offset="100%" stop-color="#3B82F6" stop-opacity="0"/>
    </radialGradient>
    
    <!-- Outer ring gradient -->
    <linearGradient id="ringGradient" x1="0%" y1="0%" x2="100%" y2="100%">
      <stop offset="0%" stop-color="#60A5FA"/>
      <stop offset="50%" stop-color="#3B82F6"/>
      <stop offset="100%" stop-color="#2563EB"/>
    </linearGradient>
    
    <!-- Glow filter for overall effect -->
    <filter id="outerGlow" x="-50%" y="-50%" width="200%" height="200%">
      <feGaussianBlur in="SourceGraphic" stdDeviation="8" result="blur"/>
      <feColorMatrix in="blur" type="matrix" values="0 0 0 0 0.23
                                                       0 0 0 0 0.51
                                                       0 0 0 0 0.96
                                                       0 0 0 0.6 0" result="coloredBlur"/>
      <feMerge>
        <feMergeNode in="coloredBlur"/>
        <feMergeNode in="SourceGraphic"/>
      </feMerge>
    </filter>
    
    <!-- Soft shadow -->
    <filter id="softShadow" x="-50%" y="-50%" width="200%" height="200%">
      <feGaussianBlur in="SourceAlpha" stdDeviation="3"/>
      <feOffset dx="0" dy="2" result="offsetblur"/>
      <feComponentTransfer>
        <feFuncA type="linear" slope="0.3"/>
      </feComponentTransfer>
      <feMerge>
        <feMergeNode/>
        <feMergeNode in="SourceGraphic"/>
      </feMerge>
    </filter>
  </defs>
  
  <!-- Outer glow ring -->
  <circle cx="80" cy="80" r="68" fill="none" stroke="url(#ringGradient)" stroke-width="1" opacity="0.3" filter="url(#outerGlow)"/>
  
  <!-- Main orb sphere -->
  <circle cx="80" cy="80" r="58" fill="url(#orbGlow)" filter="url(#outerGlow)"/>
  
  <!-- Inner glow layer -->
  <circle cx="80" cy="80" r="58" fill="url(#innerGlow)"/>
  
  <!-- Light reflections -->
  <ellipse cx="62" cy="58" rx="18" ry="15" fill="#FFFFFF" fill-opacity="0.75" filter="url(#softShadow)"/>
  <ellipse cx="96" cy="48" rx="11" ry="9" fill="#FFFFFF" fill-opacity="0.55"/>
  <ellipse cx="112" cy="78" rx="7" ry="6" fill="#FFFFFF" fill-opacity="0.4"/>
  <ellipse cx="50" cy="90" rx="5" ry="4" fill="#FFFFFF" fill-opacity="0.35"/>
  
  <!-- Geometric pattern overlay for "predictive" feel -->
  <g opacity="0.15">
    <path d="M80 30 L100 65 L80 100 L60 65 Z" fill="none" stroke="#FFFFFF" stroke-width="1.5"/>
    <circle cx="80" cy="80" r="25" fill="none" stroke="#FFFFFF" stroke-width="1"/>
    <circle cx="80" cy="80" r="15" fill="none" stroke="#FFFFFF" stroke-width="0.8"/>
  </g>
  
  <!-- Sparkle accents -->
  <g opacity="0.8">
    <path d="M40 35 L41 38 L38 39 L41 40 L40 43 L39 40 L36 39 L39 38 Z" fill="#FFFFFF"/>
    <path d="M118 100 L119 103 L116 104 L119 105 L118 108 L117 105 L114 104 L117 103 Z" fill="#FFFFFF"/>
    <path d="M125 45 L125.5 46.5 L124 47 L125.5 47.5 L125 49 L124.5 47.5 L123 47 L124.5 46.5 Z" fill="#FFFFFF"/>
  </g>
</svg>
